# xmcd
#
# Track frame offsets:
#  150
#  21750
#  39533
#  59943
#  79681
#
# Disc length: 1431 seconds
#
# Revision: 0
# Processed by: cddbd v1.5.2PL0 Copyright (c) Steve Scherf et al.
# Submitted via: AltoMP3_Maker 3.0
#
DISCID=3d059505
DTITLE=W.A.S.T.E. - This Is What We Seek (bonus disc)
DYEAR=1900
DGENRE=
TTITLE0=Shut up and Bleed (Dismembered by Comb
TTITLE1=Broken Bass
TTITLE2=Murder This Man (Remixed by Endif)
TTITLE3=Mantiscrew
TTITLE4=Discipline (Tribute to T.G.)
EXTD=
EXTT0=
EXTT1=
EXTT2=
EXTT3=
EXTT4=
PLAYORDER=
